#N canvas 72 96 450 300 12;
#X obj 140 60 ctlin;
#X obj 140 85 * 10;
#X obj 32 162 dac~;
#X obj 32 112 vcf~ 100;
#X obj 33 60 noise~;
#X obj 32 137 *~ 10;
#X connect 0 0 1 0;
#X connect 1 0 3 1;
#X connect 3 0 5 0;
#X connect 4 0 3 0;
#X connect 5 0 2 0;
