#N canvas 72 96 1848 984 12;
#X obj 693 231 osc~ 560;
#X obj 558 266 snapshot~;
#X obj 507 71 loadbang;
#X obj 558 296 > 0;
#X obj 3 329 mtof;
#X msg -119 224 86;
#X msg -75 223 91;
#X msg -36 223 94;
#X msg 8 223 96;
#X msg 53 223 98;
#X msg 84 224 103;
#X msg 121 224 106;
#X msg 154 223 110;
#X msg 194 222 114;
#X obj -45 154 sel 0 1 2 3 4 5 6 7;
#X msg 582 152 1;
#X msg 620 151 2;
#X obj 754 401 +~;
#X obj 873 433 delwrite~ \$0-del 2000;
#X obj 344 471 s change_tempo;
#X obj 600 50 r change_tempo;
#X obj 600 100 sel 0 1 2;
#X obj 344 388 change 0;
#X obj 558 343 change 0;
#X msg 661 151 4;
#X obj 556 230 osc~ 1;
#X obj 505 201 metro 100;
#X obj 698 536 dac~;
#X obj 497 154 tgl 15 0 empty empty empty 17 7 0 10 -262144 -1 -1 1
1;
#X obj 557 375 bng 15 250 50 0 empty empty empty 17 7 0 10 -262144
-1 -1;
#X obj 344 430 bng 15 250 50 0 empty empty empty 17 7 0 10 -262144
-1 -1;
#X obj 333 190 ctlin;
#X floatatom 287 297 5 0 0 0 - - -;
#X obj 692 270 *~ 1;
#X obj 693 309 *~ 1;
#X obj 333 240 snapshot~;
#X obj 333 215 hip~ 1;
#X obj 866 337 *~ 0.2;
#X obj 866 312 delread~ \$0-del 1000;
#X obj 333 265 abs;
#X obj 345 297 * 0.05;
#X obj 344 363 > 0.005;
#X text -47 32 arpegiateur;
#X text 335 506 changement de tempo;
#X text 919 338 delay feedback;
#X text 1020 309 delay;
#X text 744 536 output;
#X text 307 162 midi control input;
#N canvas 395 147 450 300 counter8 0;
#X obj 37 37 inlet;
#X obj 39 115 f;
#X obj 91 111 + 1;
#X obj 157 38 loadbang;
#X floatatom 143 129 5 0 0 0 - - -;
#X msg 158 76 0;
#X obj 39 170 outlet;
#X obj 143 105 mod 8;
#X connect 0 0 1 0;
#X connect 1 0 2 0;
#X connect 1 0 7 0;
#X connect 2 0 1 1;
#X connect 3 0 5 0;
#X connect 5 0 1 0;
#X connect 7 0 4 0;
#X connect 7 0 6 0;
#X restore -45 94 pd counter8;
#N canvas 343 147 450 300 counter3 0;
#X obj 37 37 inlet;
#X obj 39 115 f;
#X obj 91 111 + 1;
#X obj 157 38 loadbang;
#X floatatom 143 129 5 0 0 0 - - -;
#X msg 158 76 0;
#X obj 39 170 outlet;
#X obj 143 105 mod 3;
#X connect 0 0 1 0;
#X connect 1 0 2 0;
#X connect 1 0 7 0;
#X connect 2 0 1 1;
#X connect 3 0 5 0;
#X connect 5 0 1 0;
#X connect 7 0 4 0;
#X connect 7 0 6 0;
#X restore 600 74 pd counter3;
#X obj 593 193 * 0.5;
#X text 705 152 tempo;
#X text 754 196 frequency;
#X text 612 232 LFO;
#X text 546 436 note vers arpegiateur;
#X obj 558 404 s change_note;
#X obj -45 69 r change_note;
#X obj 507 96 t b b;
#X obj 3 366 s freq;
#X obj 693 195 r freq;
#X connect 0 0 33 0;
#X connect 1 0 3 0;
#X connect 2 0 57 0;
#X connect 3 0 23 0;
#X connect 4 0 58 0;
#X connect 5 0 4 0;
#X connect 6 0 4 0;
#X connect 7 0 4 0;
#X connect 8 0 4 0;
#X connect 9 0 4 0;
#X connect 10 0 4 0;
#X connect 11 0 4 0;
#X connect 12 0 4 0;
#X connect 13 0 4 0;
#X connect 14 0 5 0;
#X connect 14 1 6 0;
#X connect 14 2 7 0;
#X connect 14 3 8 0;
#X connect 14 4 9 0;
#X connect 14 5 10 0;
#X connect 14 6 11 0;
#X connect 14 7 12 0;
#X connect 14 8 13 0;
#X connect 15 0 50 0;
#X connect 16 0 50 0;
#X connect 17 0 18 0;
#X connect 17 0 27 0;
#X connect 17 0 27 1;
#X connect 20 0 49 0;
#X connect 21 0 15 0;
#X connect 21 1 16 0;
#X connect 21 2 24 0;
#X connect 22 0 30 0;
#X connect 23 0 29 0;
#X connect 24 0 50 0;
#X connect 25 0 1 0;
#X connect 25 0 33 1;
#X connect 26 0 1 0;
#X connect 26 0 35 0;
#X connect 28 0 26 0;
#X connect 29 0 55 0;
#X connect 30 0 19 0;
#X connect 31 0 36 0;
#X connect 33 0 34 0;
#X connect 34 0 17 0;
#X connect 35 0 39 0;
#X connect 36 0 35 0;
#X connect 37 0 17 1;
#X connect 38 0 37 0;
#X connect 39 0 32 0;
#X connect 39 0 40 0;
#X connect 40 0 34 1;
#X connect 40 0 41 0;
#X connect 41 0 22 0;
#X connect 48 0 14 0;
#X connect 49 0 21 0;
#X connect 50 0 25 0;
#X connect 56 0 48 0;
#X connect 57 0 28 0;
#X connect 57 1 15 0;
#X connect 59 0 0 0;
