#N canvas 72 96 450 300 12;
#X obj 117 44 ctlin;
#X obj 117 119 *~ 0.5;
#X obj 117 144 dac~;
#X obj 117 94 phasor~ 220;
#X obj 117 69 * 2;
#X connect 0 0 4 0;
#X connect 1 0 2 0;
#X connect 3 0 1 0;
#X connect 4 0 3 0;
