#N canvas 56 32 1864 979 12;
#X obj 254 11 ctlin;
#X obj 237 437 *~;
#X obj 194 132 bng 15 250 50 0 empty empty empty 17 7 0 10 #fcfcfc #000000 #000000;
#X obj 183 168 f;
#X obj 235 168 + 1;
#X obj 182 194 mod 8;
#X msg 129 281 38;
#X msg 171 281 33;
#X msg 252 280 30;
#X msg 294 280 31;
#X obj 178 350 mtof;
#X msg 212 281 35;
#X msg 337 281 26;
#X obj 181 216 sel 0 1 2 3 4 5 6 7;
#X obj 178 325 + 24;
#X obj 328 490 delwrite~ \$0-delay 1000;
#X obj 286 458 +~;
#X obj 287 521 dac~;
#X obj 297 420 *~ 0.5;
#X obj 296 394 delread~ \$0-delay 600;
#X obj 178 382 osc~;
#X obj 175 413 *~ 0.3;
#X obj 254 36 / 127;
#X obj 254 61 lop~ 2;
#X obj 254 86 hip~ 0.1;
#X obj 20 84 threshold~ 0.6 100 0.3 100;
#X connect 0 0 22 0;
#X connect 1 0 16 0;
#X connect 2 0 3 0;
#X connect 3 0 4 0;
#X connect 3 0 5 0;
#X connect 4 0 3 1;
#X connect 5 0 13 0;
#X connect 6 0 14 0;
#X connect 7 0 14 0;
#X connect 8 0 14 0;
#X connect 9 0 14 0;
#X connect 10 0 20 0;
#X connect 11 0 14 0;
#X connect 12 0 14 0;
#X connect 13 0 6 0;
#X connect 13 1 7 0;
#X connect 13 2 11 0;
#X connect 13 3 8 0;
#X connect 13 4 9 0;
#X connect 13 5 12 0;
#X connect 13 6 9 0;
#X connect 13 7 7 0;
#X connect 14 0 10 0;
#X connect 16 0 17 0;
#X connect 16 0 17 1;
#X connect 16 0 15 0;
#X connect 18 0 16 1;
#X connect 19 0 18 0;
#X connect 20 0 21 0;
#X connect 21 0 1 0;
#X connect 22 0 23 0;
#X connect 22 0 25 0;
#X connect 23 0 24 0;
#X connect 24 0 1 1;
#X connect 25 0 2 0;
