#N canvas 49 288 450 300 12;
#X obj 116 29 ctlin;
#X obj 116 101 *~ 0.5;
#X obj 116 125 dac~;
#X obj 116 77 phasor~;
#X obj 116 53 * 2;
#X connect 0 0 4 0;
#X connect 1 0 2 0;
#X connect 3 0 1 0;
#X connect 4 0 3 0;
