#N canvas 72 96 1440 856 12;
#X obj 245 -11 loadbang;
#X floatatom 245 69 5 0 0 0 - - -;
#X msg 245 28 375;
#X obj 183 -11 tgl 25 0 empty empty empty 17 7 0 10 -262144 -1 -1 0
1;
#X obj 183 96 metro;
#X obj 136 28 sel 0;
#X obj 139 75 bng 15 250 50 0 empty empty empty 17 7 0 10 -262144 -1
-1;
#X obj 29 26 loadbang;
#X msg 114 114 -1;
#X obj 177 192 int 1;
#X obj 185 144 bng 15 250 50 0 empty empty empty 17 7 0 10 -262144
-1 -1;
#X obj 238 235 + 1;
#X floatatom 179 268 5 0 0 0 - - -;
#X floatatom 179 339 5 0 0 0 - - -;
#X obj 179 291 % 8;
#X obj 179 315 + 1;
#X obj 179 403 sel 1;
#X obj 243 403 sel 2;
#X obj 306 402 sel 3;
#X obj 373 402 sel 4;
#X obj 439 401 sel 5;
#X obj 505 401 sel 6;
#X obj 573 400 sel 7;
#X obj 644 400 sel 8;
#X obj 179 442 bng 15 250 50 0 empty empty empty 17 7 0 10 -262144
-1 -1;
#X obj 179 462 s One;
#X obj 243 442 bng 15 250 50 0 empty empty empty 17 7 0 10 -262144
-1 -1;
#X obj 306 442 bng 15 250 50 0 empty empty empty 17 7 0 10 -262144
-1 -1;
#X obj 373 440 bng 15 250 50 0 empty empty empty 17 7 0 10 -262144
-1 -1;
#X obj 439 440 bng 15 250 50 0 empty empty empty 17 7 0 10 -262144
-1 -1;
#X obj 505 440 bng 15 250 50 0 empty empty empty 17 7 0 10 -262144
-1 -1;
#X obj 573 440 bng 15 250 50 0 empty empty empty 17 7 0 10 -262144
-1 -1;
#X obj 644 438 bng 15 250 50 0 empty empty empty 17 7 0 10 -262144
-1 -1;
#X obj 243 462 s Two;
#X obj 306 462 s Three;
#X obj 373 462 s Four;
#X obj 439 462 s Five;
#X obj 505 462 s Six;
#X obj 573 462 s Seven;
#X obj 644 462 s Eight;
#X obj 36 506 receive One;
#X obj 36 542 bng 15 250 50 0 empty empty empty 17 7 0 10 -262144 -1
-1;
#X obj 75 537 tgl 25 0 empty empty empty 17 7 0 10 -262144 -1 -1 1
1;
#X obj 36 572 spigot;
#X obj 36 598 bng 15 250 50 0 empty empty empty 17 7 0 10 -262144 -1
-1;
#X obj 136 541 bng 15 250 50 0 empty empty empty 17 7 0 10 -262144
-1 -1;
#X obj 175 536 tgl 25 0 empty empty empty 17 7 0 10 -262144 -1 -1 0
1;
#X obj 136 571 spigot;
#X obj 136 597 bng 15 250 50 0 empty empty empty 17 7 0 10 -262144
-1 -1;
#X obj 235 541 bng 15 250 50 0 empty empty empty 17 7 0 10 -262144
-1 -1;
#X obj 274 536 tgl 25 0 empty empty empty 17 7 0 10 -262144 -1 -1 1
1;
#X obj 235 571 spigot;
#X obj 235 597 bng 15 250 50 0 empty empty empty 17 7 0 10 -262144
-1 -1;
#X obj 337 540 bng 15 250 50 0 empty empty empty 17 7 0 10 -262144
-1 -1;
#X obj 376 535 tgl 25 0 empty empty empty 17 7 0 10 -262144 -1 -1 0
1;
#X obj 337 570 spigot;
#X obj 337 596 bng 15 250 50 0 empty empty empty 17 7 0 10 -262144
-1 -1;
#X obj 437 540 bng 15 250 50 0 empty empty empty 17 7 0 10 -262144
-1 -1;
#X obj 476 535 tgl 25 0 empty empty empty 17 7 0 10 -262144 -1 -1 0
1;
#X obj 437 570 spigot;
#X obj 437 596 bng 15 250 50 0 empty empty empty 17 7 0 10 -262144
-1 -1;
#X obj 537 539 bng 15 250 50 0 empty empty empty 17 7 0 10 -262144
-1 -1;
#X obj 576 534 tgl 25 0 empty empty empty 17 7 0 10 -262144 -1 -1 1
1;
#X obj 537 569 spigot;
#X obj 537 595 bng 15 250 50 0 empty empty empty 17 7 0 10 -262144
-1 -1;
#X obj 636 539 bng 15 250 50 0 empty empty empty 17 7 0 10 -262144
-1 -1;
#X obj 675 534 tgl 25 0 empty empty empty 17 7 0 10 -262144 -1 -1 0
1;
#X obj 636 569 spigot;
#X obj 636 595 bng 15 250 50 0 empty empty empty 17 7 0 10 -262144
-1 -1;
#X obj 738 538 bng 15 250 50 0 empty empty empty 17 7 0 10 -262144
-1 -1;
#X obj 777 533 tgl 25 0 empty empty empty 17 7 0 10 -262144 -1 -1 0
1;
#X obj 738 568 spigot;
#X obj 738 594 bng 15 250 50 0 empty empty empty 17 7 0 10 -262144
-1 -1;
#X obj 136 505 receive Two;
#X obj 235 505 receive Three;
#X obj 337 504 receive Four;
#X obj 437 504 receive Five;
#X obj 537 503 receive Six;
#X obj 636 503 receive Seven;
#X obj 738 502 receive Eight;
#X obj 146 1064 bng 15 250 50 0 empty empty empty 17 7 0 10 -262144
-1 -1;
#X obj 146 1108 readsf~;
#X obj 303 1064 bng 15 250 50 0 empty empty empty 17 7 0 10 -262144
-1 -1;
#X obj 303 1108 readsf~;
#X obj 462 1066 bng 15 250 50 0 empty empty empty 17 7 0 10 -262144
-1 -1;
#X obj 462 1110 readsf~;
#X obj 634 1062 bng 15 250 50 0 empty empty empty 17 7 0 10 -262144
-1 -1;
#X obj 634 1106 readsf~;
#X obj 360 1176 *~ 0.75;
#X obj 360 1200 dac~;
#X obj 146 1027 receive Rak;
#X obj 862 501 receive One;
#X obj 862 537 bng 15 250 50 0 empty empty empty 17 7 0 10 -262144
-1 -1;
#X obj 901 532 tgl 25 0 empty empty empty 17 7 0 10 -262144 -1 -1 1
1;
#X obj 862 567 spigot;
#X obj 862 593 bng 15 250 50 0 empty empty empty 17 7 0 10 -262144
-1 -1;
#X obj 962 536 bng 15 250 50 0 empty empty empty 17 7 0 10 -262144
-1 -1;
#X obj 1001 531 tgl 25 0 empty empty empty 17 7 0 10 -262144 -1 -1
1 1;
#X obj 962 566 spigot;
#X obj 962 592 bng 15 250 50 0 empty empty empty 17 7 0 10 -262144
-1 -1;
#X obj 1061 536 bng 15 250 50 0 empty empty empty 17 7 0 10 -262144
-1 -1;
#X obj 1100 531 tgl 25 0 empty empty empty 17 7 0 10 -262144 -1 -1
1 1;
#X obj 1061 566 spigot;
#X obj 1061 592 bng 15 250 50 0 empty empty empty 17 7 0 10 -262144
-1 -1;
#X obj 1163 535 bng 15 250 50 0 empty empty empty 17 7 0 10 -262144
-1 -1;
#X obj 1202 530 tgl 25 0 empty empty empty 17 7 0 10 -262144 -1 -1
1 1;
#X obj 1163 565 spigot;
#X obj 1163 591 bng 15 250 50 0 empty empty empty 17 7 0 10 -262144
-1 -1;
#X obj 1263 535 bng 15 250 50 0 empty empty empty 17 7 0 10 -262144
-1 -1;
#X obj 1302 530 tgl 25 0 empty empty empty 17 7 0 10 -262144 -1 -1
0 1;
#X obj 1263 565 spigot;
#X obj 1263 591 bng 15 250 50 0 empty empty empty 17 7 0 10 -262144
-1 -1;
#X obj 1363 534 bng 15 250 50 0 empty empty empty 17 7 0 10 -262144
-1 -1;
#X obj 1402 529 tgl 25 0 empty empty empty 17 7 0 10 -262144 -1 -1
0 1;
#X obj 1363 564 spigot;
#X obj 1363 590 bng 15 250 50 0 empty empty empty 17 7 0 10 -262144
-1 -1;
#X obj 1462 534 bng 15 250 50 0 empty empty empty 17 7 0 10 -262144
-1 -1;
#X obj 1501 529 tgl 25 0 empty empty empty 17 7 0 10 -262144 -1 -1
0 1;
#X obj 1462 564 spigot;
#X obj 1462 590 bng 15 250 50 0 empty empty empty 17 7 0 10 -262144
-1 -1;
#X obj 1564 533 bng 15 250 50 0 empty empty empty 17 7 0 10 -262144
-1 -1;
#X obj 1603 528 tgl 25 0 empty empty empty 17 7 0 10 -262144 -1 -1
0 1;
#X obj 1564 563 spigot;
#X obj 1564 589 bng 15 250 50 0 empty empty empty 17 7 0 10 -262144
-1 -1;
#X obj 962 500 receive Two;
#X obj 1061 500 receive Three;
#X obj 1163 499 receive Four;
#X obj 1263 499 receive Five;
#X obj 1363 498 receive Six;
#X obj 1462 498 receive Seven;
#X obj 1564 497 receive Eight;
#X obj 30 671 receive One;
#X obj 30 707 bng 15 250 50 0 empty empty empty 17 7 0 10 -262144 -1
-1;
#X obj 69 702 tgl 25 0 empty empty empty 17 7 0 10 -262144 -1 -1 0
1;
#X obj 30 737 spigot;
#X obj 30 763 bng 15 250 50 0 empty empty empty 17 7 0 10 -262144 -1
-1;
#X obj 130 706 bng 15 250 50 0 empty empty empty 17 7 0 10 -262144
-1 -1;
#X obj 169 701 tgl 25 0 empty empty empty 17 7 0 10 -262144 -1 -1 0
1;
#X obj 130 736 spigot;
#X obj 130 762 bng 15 250 50 0 empty empty empty 17 7 0 10 -262144
-1 -1;
#X obj 229 706 bng 15 250 50 0 empty empty empty 17 7 0 10 -262144
-1 -1;
#X obj 268 701 tgl 25 0 empty empty empty 17 7 0 10 -262144 -1 -1 0
1;
#X obj 229 736 spigot;
#X obj 229 762 bng 15 250 50 0 empty empty empty 17 7 0 10 -262144
-1 -1;
#X obj 331 705 bng 15 250 50 0 empty empty empty 17 7 0 10 -262144
-1 -1;
#X obj 370 700 tgl 25 0 empty empty empty 17 7 0 10 -262144 -1 -1 0
1;
#X obj 331 735 spigot;
#X obj 331 761 bng 15 250 50 0 empty empty empty 17 7 0 10 -262144
-1 -1;
#X obj 431 705 bng 15 250 50 0 empty empty empty 17 7 0 10 -262144
-1 -1;
#X obj 470 700 tgl 25 0 empty empty empty 17 7 0 10 -262144 -1 -1 0
1;
#X obj 431 735 spigot;
#X obj 431 761 bng 15 250 50 0 empty empty empty 17 7 0 10 -262144
-1 -1;
#X obj 531 704 bng 15 250 50 0 empty empty empty 17 7 0 10 -262144
-1 -1;
#X obj 570 699 tgl 25 0 empty empty empty 17 7 0 10 -262144 -1 -1 0
1;
#X obj 531 734 spigot;
#X obj 531 760 bng 15 250 50 0 empty empty empty 17 7 0 10 -262144
-1 -1;
#X obj 630 704 bng 15 250 50 0 empty empty empty 17 7 0 10 -262144
-1 -1;
#X obj 669 699 tgl 25 0 empty empty empty 17 7 0 10 -262144 -1 -1 0
1;
#X obj 630 734 spigot;
#X obj 630 760 bng 15 250 50 0 empty empty empty 17 7 0 10 -262144
-1 -1;
#X obj 732 703 bng 15 250 50 0 empty empty empty 17 7 0 10 -262144
-1 -1;
#X obj 771 698 tgl 25 0 empty empty empty 17 7 0 10 -262144 -1 -1 1
1;
#X obj 732 733 spigot;
#X obj 732 759 bng 15 250 50 0 empty empty empty 17 7 0 10 -262144
-1 -1;
#X obj 130 670 receive Two;
#X obj 229 670 receive Three;
#X obj 331 669 receive Four;
#X obj 431 669 receive Five;
#X obj 531 668 receive Six;
#X obj 630 668 receive Seven;
#X obj 732 667 receive Eight;
#X obj 856 666 receive One;
#X obj 856 702 bng 15 250 50 0 empty empty empty 17 7 0 10 -262144
-1 -1;
#X obj 895 697 tgl 25 0 empty empty empty 17 7 0 10 -262144 -1 -1 0
1;
#X obj 856 732 spigot;
#X obj 856 758 bng 15 250 50 0 empty empty empty 17 7 0 10 -262144
-1 -1;
#X obj 956 701 bng 15 250 50 0 empty empty empty 17 7 0 10 -262144
-1 -1;
#X obj 995 696 tgl 25 0 empty empty empty 17 7 0 10 -262144 -1 -1 0
1;
#X obj 956 731 spigot;
#X obj 956 757 bng 15 250 50 0 empty empty empty 17 7 0 10 -262144
-1 -1;
#X obj 1055 701 bng 15 250 50 0 empty empty empty 17 7 0 10 -262144
-1 -1;
#X obj 1094 696 tgl 25 0 empty empty empty 17 7 0 10 -262144 -1 -1
0 1;
#X obj 1055 731 spigot;
#X obj 1055 757 bng 15 250 50 0 empty empty empty 17 7 0 10 -262144
-1 -1;
#X obj 1157 700 bng 15 250 50 0 empty empty empty 17 7 0 10 -262144
-1 -1;
#X obj 1196 695 tgl 25 0 empty empty empty 17 7 0 10 -262144 -1 -1
0 1;
#X obj 1157 730 spigot;
#X obj 1157 756 bng 15 250 50 0 empty empty empty 17 7 0 10 -262144
-1 -1;
#X obj 1257 700 bng 15 250 50 0 empty empty empty 17 7 0 10 -262144
-1 -1;
#X obj 1296 695 tgl 25 0 empty empty empty 17 7 0 10 -262144 -1 -1
0 1;
#X obj 1257 730 spigot;
#X obj 1257 756 bng 15 250 50 0 empty empty empty 17 7 0 10 -262144
-1 -1;
#X obj 1357 699 bng 15 250 50 0 empty empty empty 17 7 0 10 -262144
-1 -1;
#X obj 1396 694 tgl 25 0 empty empty empty 17 7 0 10 -262144 -1 -1
0 1;
#X obj 1357 729 spigot;
#X obj 1357 755 bng 15 250 50 0 empty empty empty 17 7 0 10 -262144
-1 -1;
#X obj 1456 699 bng 15 250 50 0 empty empty empty 17 7 0 10 -262144
-1 -1;
#X obj 1495 694 tgl 25 0 empty empty empty 17 7 0 10 -262144 -1 -1
0 1;
#X obj 1456 729 spigot;
#X obj 1456 755 bng 15 250 50 0 empty empty empty 17 7 0 10 -262144
-1 -1;
#X obj 1558 698 bng 15 250 50 0 empty empty empty 17 7 0 10 -262144
-1 -1;
#X obj 1597 693 tgl 25 0 empty empty empty 17 7 0 10 -262144 -1 -1
0 1;
#X obj 1558 728 spigot;
#X obj 1558 754 bng 15 250 50 0 empty empty empty 17 7 0 10 -262144
-1 -1;
#X obj 956 665 receive Two;
#X obj 1055 665 receive Three;
#X obj 1157 664 receive Four;
#X obj 1257 664 receive Five;
#X obj 1357 663 receive Six;
#X obj 1456 663 receive Seven;
#X obj 1558 662 receive Eight;
#X obj 401 631 send Rak;
#X msg 146 1084 open Rak.wav \, 1;
#X obj 146 1132 *~ 0.75;
#X obj 462 1134 *~ 1;
#X obj 1227 626 send Marimba;
#X obj 395 796 send Zanka;
#X obj 1221 791 send Voice;
#X obj 303 1027 receive Marimba;
#X obj 462 1029 receive Zanka;
#X obj 634 1025 receive Voice;
#X msg 303 1084 open Marimba.wav \, 1;
#X msg 462 1086 open Zanka.wav \, 1;
#X msg 634 1082 open Voice.wav \, 1;
#X obj 303 1132 *~ 1;
#X obj 634 1130 *~ 1.25;
#X obj 803 1061 bng 15 250 50 0 empty empty empty 17 7 0 10 -262144
-1 -1;
#X obj 803 1105 readsf~;
#X msg 803 1081 open respiration_04.wav \, 1;
#X obj 29 856 receive One;
#X obj 29 892 bng 15 250 50 0 empty empty empty 17 7 0 10 -262144 -1
-1;
#X obj 68 887 tgl 25 0 empty empty empty 17 7 0 10 -262144 -1 -1 0
1;
#X obj 29 922 spigot;
#X obj 29 948 bng 15 250 50 0 empty empty empty 17 7 0 10 -262144 -1
-1;
#X obj 129 891 bng 15 250 50 0 empty empty empty 17 7 0 10 -262144
-1 -1;
#X obj 168 886 tgl 25 0 empty empty empty 17 7 0 10 -262144 -1 -1 0
1;
#X obj 129 921 spigot;
#X obj 129 947 bng 15 250 50 0 empty empty empty 17 7 0 10 -262144
-1 -1;
#X obj 228 891 bng 15 250 50 0 empty empty empty 17 7 0 10 -262144
-1 -1;
#X obj 267 886 tgl 25 0 empty empty empty 17 7 0 10 -262144 -1 -1 0
1;
#X obj 228 921 spigot;
#X obj 228 947 bng 15 250 50 0 empty empty empty 17 7 0 10 -262144
-1 -1;
#X obj 330 890 bng 15 250 50 0 empty empty empty 17 7 0 10 -262144
-1 -1;
#X obj 369 885 tgl 25 0 empty empty empty 17 7 0 10 -262144 -1 -1 0
1;
#X obj 330 920 spigot;
#X obj 330 946 bng 15 250 50 0 empty empty empty 17 7 0 10 -262144
-1 -1;
#X obj 430 890 bng 15 250 50 0 empty empty empty 17 7 0 10 -262144
-1 -1;
#X obj 469 885 tgl 25 0 empty empty empty 17 7 0 10 -262144 -1 -1 0
1;
#X obj 430 920 spigot;
#X obj 430 946 bng 15 250 50 0 empty empty empty 17 7 0 10 -262144
-1 -1;
#X obj 530 889 bng 15 250 50 0 empty empty empty 17 7 0 10 -262144
-1 -1;
#X obj 569 884 tgl 25 0 empty empty empty 17 7 0 10 -262144 -1 -1 0
1;
#X obj 530 919 spigot;
#X obj 530 945 bng 15 250 50 0 empty empty empty 17 7 0 10 -262144
-1 -1;
#X obj 629 889 bng 15 250 50 0 empty empty empty 17 7 0 10 -262144
-1 -1;
#X obj 668 884 tgl 25 0 empty empty empty 17 7 0 10 -262144 -1 -1 0
1;
#X obj 629 919 spigot;
#X obj 629 945 bng 15 250 50 0 empty empty empty 17 7 0 10 -262144
-1 -1;
#X obj 731 888 bng 15 250 50 0 empty empty empty 17 7 0 10 -262144
-1 -1;
#X obj 770 883 tgl 25 0 empty empty empty 17 7 0 10 -262144 -1 -1 0
1;
#X obj 731 918 spigot;
#X obj 731 944 bng 15 250 50 0 empty empty empty 17 7 0 10 -262144
-1 -1;
#X obj 129 855 receive Two;
#X obj 228 855 receive Three;
#X obj 330 854 receive Four;
#X obj 430 854 receive Five;
#X obj 530 853 receive Six;
#X obj 629 853 receive Seven;
#X obj 731 852 receive Eight;
#X obj 855 851 receive One;
#X obj 855 887 bng 15 250 50 0 empty empty empty 17 7 0 10 -262144
-1 -1;
#X obj 894 882 tgl 25 0 empty empty empty 17 7 0 10 -262144 -1 -1 0
1;
#X obj 855 917 spigot;
#X obj 855 943 bng 15 250 50 0 empty empty empty 17 7 0 10 -262144
-1 -1;
#X obj 955 886 bng 15 250 50 0 empty empty empty 17 7 0 10 -262144
-1 -1;
#X obj 994 881 tgl 25 0 empty empty empty 17 7 0 10 -262144 -1 -1 0
1;
#X obj 955 916 spigot;
#X obj 955 942 bng 15 250 50 0 empty empty empty 17 7 0 10 -262144
-1 -1;
#X obj 1054 886 bng 15 250 50 0 empty empty empty 17 7 0 10 -262144
-1 -1;
#X obj 1093 881 tgl 25 0 empty empty empty 17 7 0 10 -262144 -1 -1
0 1;
#X obj 1054 916 spigot;
#X obj 1054 942 bng 15 250 50 0 empty empty empty 17 7 0 10 -262144
-1 -1;
#X obj 1156 885 bng 15 250 50 0 empty empty empty 17 7 0 10 -262144
-1 -1;
#X obj 1195 880 tgl 25 0 empty empty empty 17 7 0 10 -262144 -1 -1
0 1;
#X obj 1156 915 spigot;
#X obj 1156 941 bng 15 250 50 0 empty empty empty 17 7 0 10 -262144
-1 -1;
#X obj 1256 885 bng 15 250 50 0 empty empty empty 17 7 0 10 -262144
-1 -1;
#X obj 1295 880 tgl 25 0 empty empty empty 17 7 0 10 -262144 -1 -1
0 1;
#X obj 1256 915 spigot;
#X obj 1256 941 bng 15 250 50 0 empty empty empty 17 7 0 10 -262144
-1 -1;
#X obj 1356 884 bng 15 250 50 0 empty empty empty 17 7 0 10 -262144
-1 -1;
#X obj 1395 879 tgl 25 0 empty empty empty 17 7 0 10 -262144 -1 -1
0 1;
#X obj 1356 914 spigot;
#X obj 1356 940 bng 15 250 50 0 empty empty empty 17 7 0 10 -262144
-1 -1;
#X obj 1455 884 bng 15 250 50 0 empty empty empty 17 7 0 10 -262144
-1 -1;
#X obj 1494 879 tgl 25 0 empty empty empty 17 7 0 10 -262144 -1 -1
0 1;
#X obj 1455 914 spigot;
#X obj 1455 940 bng 15 250 50 0 empty empty empty 17 7 0 10 -262144
-1 -1;
#X obj 1557 883 bng 15 250 50 0 empty empty empty 17 7 0 10 -262144
-1 -1;
#X obj 1596 878 tgl 25 0 empty empty empty 17 7 0 10 -262144 -1 -1
0 1;
#X obj 1557 913 spigot;
#X obj 1557 939 bng 15 250 50 0 empty empty empty 17 7 0 10 -262144
-1 -1;
#X obj 955 850 receive Two;
#X obj 1054 850 receive Three;
#X obj 1156 849 receive Four;
#X obj 1256 849 receive Five;
#X obj 1356 848 receive Six;
#X obj 1455 848 receive Seven;
#X obj 1557 847 receive Eight;
#X obj 394 981 send respiration_04;
#X obj 803 1024 receive respiration_04;
#X obj 803 1129 *~ 20;
#X obj 1220 976 send Hin;
#X obj 1026 1059 bng 15 250 50 0 empty empty empty 17 7 0 10 -262144
-1 -1;
#X obj 1026 1103 readsf~;
#X obj 1026 1022 receive Hin;
#X msg 1026 1079 open hin.wav \, 1;
#X obj 1026 1127 *~ 30;
#X obj 417 61 notein;
#X text 417 37 MIDI IN;
#X obj 417 132 bng 20 250 50 0 empty empty empty 17 7 0 10 -262144
-1 -1;
#X connect 0 0 2 0;
#X connect 1 0 4 1;
#X connect 2 0 1 0;
#X connect 3 0 4 0;
#X connect 3 0 5 0;
#X connect 4 0 10 0;
#X connect 5 0 6 0;
#X connect 6 0 8 0;
#X connect 7 0 6 0;
#X connect 8 0 9 0;
#X connect 9 0 11 0;
#X connect 9 0 12 0;
#X connect 10 0 9 0;
#X connect 11 0 9 1;
#X connect 12 0 14 0;
#X connect 13 0 16 0;
#X connect 13 0 17 0;
#X connect 13 0 18 0;
#X connect 13 0 19 0;
#X connect 13 0 20 0;
#X connect 13 0 21 0;
#X connect 13 0 22 0;
#X connect 13 0 23 0;
#X connect 14 0 15 0;
#X connect 15 0 13 0;
#X connect 16 0 24 0;
#X connect 17 0 26 0;
#X connect 18 0 27 0;
#X connect 19 0 28 0;
#X connect 20 0 29 0;
#X connect 21 0 30 0;
#X connect 22 0 31 0;
#X connect 23 0 32 0;
#X connect 24 0 25 0;
#X connect 26 0 33 0;
#X connect 27 0 34 0;
#X connect 28 0 35 0;
#X connect 29 0 36 0;
#X connect 30 0 37 0;
#X connect 31 0 38 0;
#X connect 32 0 39 0;
#X connect 40 0 41 0;
#X connect 41 0 43 0;
#X connect 42 0 43 1;
#X connect 43 0 44 0;
#X connect 44 0 211 0;
#X connect 45 0 47 0;
#X connect 46 0 47 1;
#X connect 47 0 48 0;
#X connect 48 0 211 0;
#X connect 49 0 51 0;
#X connect 50 0 51 1;
#X connect 51 0 52 0;
#X connect 52 0 211 0;
#X connect 53 0 55 0;
#X connect 54 0 55 1;
#X connect 55 0 56 0;
#X connect 56 0 211 0;
#X connect 57 0 59 0;
#X connect 58 0 59 1;
#X connect 59 0 60 0;
#X connect 60 0 211 0;
#X connect 61 0 63 0;
#X connect 62 0 63 1;
#X connect 63 0 64 0;
#X connect 64 0 211 0;
#X connect 65 0 67 0;
#X connect 66 0 67 1;
#X connect 67 0 68 0;
#X connect 68 0 211 0;
#X connect 69 0 71 0;
#X connect 70 0 71 1;
#X connect 71 0 72 0;
#X connect 72 0 211 0;
#X connect 73 0 45 0;
#X connect 74 0 49 0;
#X connect 75 0 53 0;
#X connect 76 0 57 0;
#X connect 77 0 61 0;
#X connect 78 0 65 0;
#X connect 79 0 69 0;
#X connect 80 0 212 0;
#X connect 81 0 213 0;
#X connect 82 0 221 0;
#X connect 83 0 224 0;
#X connect 84 0 222 0;
#X connect 85 0 214 0;
#X connect 86 0 223 0;
#X connect 87 0 225 0;
#X connect 88 0 89 0;
#X connect 88 0 89 1;
#X connect 90 0 80 0;
#X connect 91 0 92 0;
#X connect 92 0 94 0;
#X connect 93 0 94 1;
#X connect 94 0 95 0;
#X connect 95 0 215 0;
#X connect 96 0 98 0;
#X connect 97 0 98 1;
#X connect 98 0 99 0;
#X connect 99 0 215 0;
#X connect 100 0 102 0;
#X connect 101 0 102 1;
#X connect 102 0 103 0;
#X connect 103 0 215 0;
#X connect 104 0 106 0;
#X connect 105 0 106 1;
#X connect 106 0 107 0;
#X connect 107 0 215 0;
#X connect 108 0 110 0;
#X connect 109 0 110 1;
#X connect 110 0 111 0;
#X connect 111 0 215 0;
#X connect 112 0 114 0;
#X connect 113 0 114 1;
#X connect 114 0 115 0;
#X connect 115 0 215 0;
#X connect 116 0 118 0;
#X connect 117 0 118 1;
#X connect 118 0 119 0;
#X connect 119 0 215 0;
#X connect 120 0 122 0;
#X connect 121 0 122 1;
#X connect 122 0 123 0;
#X connect 123 0 215 0;
#X connect 124 0 96 0;
#X connect 125 0 100 0;
#X connect 126 0 104 0;
#X connect 127 0 108 0;
#X connect 128 0 112 0;
#X connect 129 0 116 0;
#X connect 130 0 120 0;
#X connect 131 0 132 0;
#X connect 132 0 134 0;
#X connect 133 0 134 1;
#X connect 134 0 135 0;
#X connect 135 0 216 0;
#X connect 136 0 138 0;
#X connect 137 0 138 1;
#X connect 138 0 139 0;
#X connect 139 0 216 0;
#X connect 140 0 142 0;
#X connect 141 0 142 1;
#X connect 142 0 143 0;
#X connect 143 0 216 0;
#X connect 144 0 146 0;
#X connect 145 0 146 1;
#X connect 146 0 147 0;
#X connect 147 0 216 0;
#X connect 148 0 150 0;
#X connect 149 0 150 1;
#X connect 150 0 151 0;
#X connect 151 0 216 0;
#X connect 152 0 154 0;
#X connect 153 0 154 1;
#X connect 154 0 155 0;
#X connect 155 0 216 0;
#X connect 156 0 158 0;
#X connect 157 0 158 1;
#X connect 158 0 159 0;
#X connect 159 0 216 0;
#X connect 160 0 162 0;
#X connect 161 0 162 1;
#X connect 162 0 163 0;
#X connect 163 0 216 0;
#X connect 164 0 136 0;
#X connect 165 0 140 0;
#X connect 166 0 144 0;
#X connect 167 0 148 0;
#X connect 168 0 152 0;
#X connect 169 0 156 0;
#X connect 170 0 160 0;
#X connect 171 0 172 0;
#X connect 172 0 174 0;
#X connect 173 0 174 1;
#X connect 174 0 175 0;
#X connect 175 0 217 0;
#X connect 176 0 178 0;
#X connect 177 0 178 1;
#X connect 178 0 179 0;
#X connect 179 0 217 0;
#X connect 180 0 182 0;
#X connect 181 0 182 1;
#X connect 182 0 183 0;
#X connect 183 0 217 0;
#X connect 184 0 186 0;
#X connect 185 0 186 1;
#X connect 186 0 187 0;
#X connect 187 0 217 0;
#X connect 188 0 190 0;
#X connect 189 0 190 1;
#X connect 190 0 191 0;
#X connect 191 0 217 0;
#X connect 192 0 194 0;
#X connect 193 0 194 1;
#X connect 194 0 195 0;
#X connect 195 0 217 0;
#X connect 196 0 198 0;
#X connect 197 0 198 1;
#X connect 198 0 199 0;
#X connect 199 0 217 0;
#X connect 200 0 202 0;
#X connect 201 0 202 1;
#X connect 202 0 203 0;
#X connect 203 0 217 0;
#X connect 204 0 176 0;
#X connect 205 0 180 0;
#X connect 206 0 184 0;
#X connect 207 0 188 0;
#X connect 208 0 192 0;
#X connect 209 0 196 0;
#X connect 210 0 200 0;
#X connect 212 0 81 0;
#X connect 213 0 88 0;
#X connect 214 0 88 0;
#X connect 218 0 82 0;
#X connect 219 0 84 0;
#X connect 220 0 86 0;
#X connect 221 0 83 0;
#X connect 222 0 85 0;
#X connect 223 0 87 0;
#X connect 224 0 88 0;
#X connect 225 0 88 0;
#X connect 226 0 228 0;
#X connect 227 0 311 0;
#X connect 228 0 227 0;
#X connect 229 0 230 0;
#X connect 230 0 232 0;
#X connect 231 0 232 1;
#X connect 232 0 233 0;
#X connect 233 0 309 0;
#X connect 234 0 236 0;
#X connect 235 0 236 1;
#X connect 236 0 237 0;
#X connect 237 0 309 0;
#X connect 238 0 240 0;
#X connect 239 0 240 1;
#X connect 240 0 241 0;
#X connect 241 0 309 0;
#X connect 242 0 244 0;
#X connect 243 0 244 1;
#X connect 244 0 245 0;
#X connect 245 0 309 0;
#X connect 246 0 248 0;
#X connect 247 0 248 1;
#X connect 248 0 249 0;
#X connect 249 0 309 0;
#X connect 250 0 252 0;
#X connect 251 0 252 1;
#X connect 252 0 253 0;
#X connect 253 0 309 0;
#X connect 254 0 256 0;
#X connect 255 0 256 1;
#X connect 256 0 257 0;
#X connect 257 0 309 0;
#X connect 258 0 260 0;
#X connect 259 0 260 1;
#X connect 260 0 261 0;
#X connect 261 0 309 0;
#X connect 262 0 234 0;
#X connect 263 0 238 0;
#X connect 264 0 242 0;
#X connect 265 0 246 0;
#X connect 266 0 250 0;
#X connect 267 0 254 0;
#X connect 268 0 258 0;
#X connect 269 0 270 0;
#X connect 270 0 272 0;
#X connect 271 0 272 1;
#X connect 272 0 273 0;
#X connect 273 0 312 0;
#X connect 274 0 276 0;
#X connect 275 0 276 1;
#X connect 276 0 277 0;
#X connect 277 0 312 0;
#X connect 278 0 280 0;
#X connect 279 0 280 1;
#X connect 280 0 281 0;
#X connect 281 0 312 0;
#X connect 282 0 284 0;
#X connect 283 0 284 1;
#X connect 284 0 285 0;
#X connect 285 0 312 0;
#X connect 286 0 288 0;
#X connect 287 0 288 1;
#X connect 288 0 289 0;
#X connect 289 0 312 0;
#X connect 290 0 292 0;
#X connect 291 0 292 1;
#X connect 292 0 293 0;
#X connect 293 0 312 0;
#X connect 294 0 296 0;
#X connect 295 0 296 1;
#X connect 296 0 297 0;
#X connect 297 0 312 0;
#X connect 298 0 300 0;
#X connect 299 0 300 1;
#X connect 300 0 301 0;
#X connect 301 0 312 0;
#X connect 302 0 274 0;
#X connect 303 0 278 0;
#X connect 304 0 282 0;
#X connect 305 0 286 0;
#X connect 306 0 290 0;
#X connect 307 0 294 0;
#X connect 308 0 298 0;
#X connect 310 0 226 0;
#X connect 311 0 88 0;
#X connect 313 0 316 0;
#X connect 314 0 317 0;
#X connect 315 0 313 0;
#X connect 316 0 314 0;
#X connect 317 0 88 0;
#X connect 318 0 320 0;
