#N canvas 72 96 1848 984 12;
#X obj 53 42 ctlin;
#X text 442 48 for each triggered event;
#X obj 382 45 r bing;
#X obj 382 119 readsf~;
#X obj 382 155 dac~;
#X msg 382 84 open note_boite_à_musique.wav \, 1;
#X obj 173 178 vsl 15 128 0 127 0 0 empty empty empty 0 -9 0 10 -262144
-1 -1 4000 1;
#X floatatom 53 136 5 0 0 0 - - -;
#X obj 53 273 bng 15 250 50 0 empty empty empty 17 7 0 10 -262144 -1
-1;
#X obj 93 313 s bing;
#X obj 53 108 < 15;
#X floatatom 53 74 5 0 0 0 - - -;
#X obj 53 167 change;
#X connect 0 0 6 0;
#X connect 0 0 10 0;
#X connect 0 0 11 0;
#X connect 2 0 5 0;
#X connect 3 0 4 0;
#X connect 3 0 4 1;
#X connect 5 0 3 0;
#X connect 7 0 12 0;
#X connect 8 0 9 0;
#X connect 10 0 7 0;
#X connect 12 0 8 0;
